<svg version="1.2" baseProfile="tiny-ps" xmlns="http://www.w3.org/2000/svg" viewBox="0 0 493 493" width="493" height="493">
	<title>doubleArrow-svg</title>
	<style>
		tspan { white-space:pre }
		.s0 { fill: #ffffff } 
	</style>
	<g id="Layer">
		<g id="Layer">
			<path id="Layer" class="s0" d="m492 246.07c0.07 3.68-1.36 7.26-4.03 9.92l-85.5 85.51c-2.62 2.61-6.1 4.06-9.81 4.06c-3.71 0-7.2-1.41-9.81-4.02l-7.44-7.4c-2.62-2.61-4.05-5.99-4.05-9.7c0-3.71 1.44-6.99 4.05-9.59l50.1-49.67h-358.79l49.86 49.44c5.42 5.41 5.42 13.78 0 19.19l-7.44 7.45c-5.22 5.23-14.39 5.23-19.62 0l-85.46-85.46c-2.67-2.67-4.1-6.25-4.03-10.07c-0.07-3.68 1.36-7.24 4.03-9.92l85.5-85.47c5.22-5.23 14.39-5.19 19.62 0.04l7.44 7.52c5.41 5.41 5.41 14.38 0 19.8l-48.7 49.02h355.98l-48.46-48.79c-5.4-5.41-5.4-14.55 0-19.96l7.45-7.45c5.22-5.23 14.4-5.23 19.62 0l85.47 85.46c2.67 2.67 4.1 6.25 4.03 10.08z" />
		</g>
	</g>
	<g id="Layer">
	</g>
	<g id="Layer">
	</g>
	<g id="Layer">
	</g>
	<g id="Layer">
	</g>
	<g id="Layer">
	</g>
	<g id="Layer">
	</g>
	<g id="Layer">
	</g>
	<g id="Layer">
	</g>
	<g id="Layer">
	</g>
	<g id="Layer">
	</g>
	<g id="Layer">
	</g>
	<g id="Layer">
	</g>
	<g id="Layer">
	</g>
	<g id="Layer">
	</g>
	<g id="Layer">
	</g>
</svg>